<svg width="255" height="96" viewBox="0 0 255 96" fill="none" xmlns="http://www.w3.org/2000/svg">
<g filter="url(#filter0_d_5_79)">
<g clip-path="url(#clip0_5_79)">
<path d="M88.3921 57.4824V14.1724H72.6287V3.82062H116.212V14.1724H99.9844V57.4824H88.3921Z" stroke="white" stroke-width="2" stroke-miterlimit="10"/>
<path d="M135.918 58.245C131.489 58.245 127.614 57.354 124.288 55.5645C120.962 53.7751 118.389 51.3211 116.562 48.2027C114.736 45.0844 113.822 41.5054 113.822 37.4734C113.822 33.4414 114.713 29.5755 116.486 26.359C118.26 23.1425 120.726 20.6206 123.869 18.8085C127.013 16.9963 130.59 16.0601 134.609 16.0072C138.316 16.0601 141.627 16.951 144.542 18.6876C147.45 20.4243 149.733 22.8178 151.377 25.8531C153.029 28.896 153.798 32.3541 153.699 36.2427L153.623 39.6178H124.494C125.11 42.3737 126.518 44.5785 128.703 46.2094C130.895 47.8479 133.688 48.6633 137.091 48.6633C138.895 48.6633 140.539 48.384 142.038 47.8177C143.53 47.2589 145.128 46.2849 146.826 44.9032L152.078 52.1819C149.809 54.1752 147.26 55.6853 144.428 56.7047C141.597 57.724 138.758 58.2374 135.926 58.2374L135.918 58.245ZM134.762 25.3623C129.091 25.3623 125.696 27.8918 124.562 32.9506H143.34V32.6411C143.187 30.5496 142.297 28.8054 140.676 27.4312C139.054 26.0494 137.083 25.3623 134.762 25.3623Z" stroke="white" stroke-width="2" stroke-miterlimit="10"/>
<path d="M179.578 58.2449C175.666 58.2449 172.157 57.3238 169.066 55.4814C165.976 53.6391 163.541 51.1399 161.767 47.9686C159.994 44.7974 159.103 41.1958 159.103 37.1638C159.103 33.1318 159.994 29.5226 161.767 26.359C163.541 23.1877 165.976 20.6885 169.066 18.8462C172.157 17.0038 175.658 16.0902 179.578 16.0902C183.239 16.0902 186.581 16.7547 189.625 18.0836C192.662 19.4125 195.037 21.2548 196.734 23.603L190.706 30.8062C189.625 29.3263 188.171 28.088 186.337 27.0914C184.51 26.0947 182.592 25.5964 180.583 25.5964C178.467 25.5964 176.602 26.0947 174.981 27.0914C173.359 28.088 172.081 29.4547 171.152 31.1913C170.223 32.9279 169.759 34.9213 169.759 37.1713C169.759 39.4214 170.231 41.2713 171.19 43.0381C172.142 44.7974 173.443 46.1792 175.095 47.1758C176.747 48.1725 178.596 48.6708 180.659 48.6708C182.722 48.6708 184.51 48.2405 186.185 47.3646C187.859 46.4963 189.366 45.2731 190.706 43.6875L196.658 50.8907C194.908 53.0879 192.487 54.8623 189.397 56.2214C186.307 57.5729 183.034 58.2525 179.586 58.2525L179.578 58.2449Z" stroke="white" stroke-width="2" stroke-miterlimit="10"/>
<path d="M203.684 57.4824V0.755066H214.5V22.1382C215.938 20.3487 217.795 18.8915 220.064 17.7665C222.332 16.6414 224.699 16.0827 227.173 16.0827C236.55 16.0827 241.239 21.6021 241.239 32.641V57.4748H230.263V33.4792C230.263 27.9068 227.919 25.2264 223.23 25.4303C220.756 25.4303 218.709 26.1702 217.088 27.6501C215.466 29.13 214.652 30.9497 214.652 33.0941V57.4673H203.676L203.684 57.4824Z" stroke="white" stroke-width="2" stroke-miterlimit="10"/>
<path d="M25.3383 4.15283H13.7612V57.4748H25.3383V4.15283Z" stroke="white" stroke-width="2" stroke-miterlimit="10"/>
<path d="M62.0029 4.07727H35.9639V4.34909L62.0029 37.5564V4.07727Z" stroke="white" stroke-width="2" stroke-miterlimit="10"/>
<path d="M35.9639 57.5578H62.0029L35.9639 24.3505V57.5578Z" stroke="white" stroke-width="2" stroke-miterlimit="10"/>
</g>
</g>
<defs>
<filter id="filter0_d_5_79" x="0" y="0" width="255" height="96" filterUnits="userSpaceOnUse" color-interpolation-filters="sRGB">
<feFlood flood-opacity="0" result="BackgroundImageFix"/>
<feColorMatrix in="SourceAlpha" type="matrix" values="0 0 0 0 0 0 0 0 0 0 0 0 0 0 0 0 0 0 127 0" result="hardAlpha"/>
<feOffset dy="24"/>
<feGaussianBlur stdDeviation="6.5"/>
<feComposite in2="hardAlpha" operator="out"/>
<feColorMatrix type="matrix" values="0 0 0 0 0 0 0 0 0 0 0 0 0 0 0 0 0 0 0.5 0"/>
<feBlend mode="normal" in2="BackgroundImageFix" result="effect1_dropShadow_5_79"/>
<feBlend mode="normal" in="SourceGraphic" in2="effect1_dropShadow_5_79" result="shape"/>
</filter>
<clipPath id="clip0_5_79">
<rect width="229" height="59" fill="white" transform="translate(13)"/>
</clipPath>
</defs>
</svg>
